<svg width="28" height="28" viewBox="0 0 28 28" fill="none" xmlns="http://www.w3.org/2000/svg">
<path d="M10.5 24.8889C11.5739 24.8889 12.4445 24.0183 12.4445 22.9444C12.4445 21.8706 11.5739 21 10.5 21C9.42612 21 8.55556 21.8706 8.55556 22.9444C8.55556 24.0183 9.42612 24.8889 10.5 24.8889Z" fill="white"/>
<path d="M20.6111 24.8889C21.685 24.8889 22.5556 24.0183 22.5556 22.9444C22.5556 21.8706 21.685 21 20.6111 21C19.5372 21 18.6667 21.8706 18.6667 22.9444C18.6667 24.0183 19.5372 24.8889 20.6111 24.8889Z" fill="white"/>
<path d="M25.7444 4.96999C25.672 4.87587 25.5789 4.79959 25.4724 4.74701C25.3659 4.69443 25.2488 4.66695 25.13 4.66666H7.16333L6.81333 3.55444C6.77488 3.43502 6.70812 3.32667 6.61873 3.23864C6.52935 3.1506 6.41999 3.0855 6.3 3.04888L3.11111 2.06888C3.01305 2.03875 2.91002 2.02823 2.8079 2.03791C2.70578 2.0476 2.60657 2.07731 2.51593 2.12533C2.33287 2.22233 2.19585 2.38808 2.135 2.5861C2.07414 2.78413 2.09445 2.99822 2.19145 3.18128C2.28845 3.36434 2.45419 3.50136 2.65222 3.56222L5.44444 4.41777L9.00666 15.6722L7.73888 16.7144L7.63777 16.8155C7.32425 17.1786 7.14662 17.6393 7.13527 18.1188C7.12392 18.5984 7.27955 19.067 7.57555 19.4444C7.78754 19.7022 8.05692 19.9069 8.36215 20.0419C8.66737 20.177 8.99997 20.2387 9.33333 20.2222H22.3144C22.5207 20.2222 22.7185 20.1403 22.8644 19.9944C23.0103 19.8485 23.0922 19.6507 23.0922 19.4444C23.0922 19.2382 23.0103 19.0403 22.8644 18.8945C22.7185 18.7486 22.5207 18.6667 22.3144 18.6667H9.20888C9.11932 18.6636 9.03206 18.6375 8.95553 18.5909C8.879 18.5442 8.81579 18.4787 8.772 18.4005C8.72822 18.3223 8.70533 18.2341 8.70557 18.1445C8.7058 18.0549 8.72914 17.9668 8.77333 17.8889L10.6478 16.3333H22.6489C22.8266 16.3385 23.0006 16.2827 23.1422 16.1751C23.2837 16.0676 23.3841 15.9148 23.4267 15.7422L25.9156 5.6311C25.9392 5.51515 25.9361 5.39533 25.9064 5.28076C25.8768 5.1662 25.8214 5.05991 25.7444 4.96999Z" fill="white"/>
</svg>
